<mxfile host="app.diagrams.net" modified="2023-11-13T14:43:22.562Z" agent="Mozilla/5.0 (Windows NT 10.0; Win64; x64; rv:109.0) Gecko/20100101 Firefox/116.0" etag="m5GekYMEHsQbJFvg8D0d" version="22.1.0" type="github">
  <diagram name="Trang-1" id="8WOk82VxNDKTeJKdt3mN">
    <mxGraphModel dx="880" dy="508" grid="1" gridSize="10" guides="1" tooltips="1" connect="1" arrows="1" fold="1" page="1" pageScale="1" pageWidth="827" pageHeight="1169" math="0" shadow="0">
      <root>
        <mxCell id="0" />
        <mxCell id="1" parent="0" />
        <mxCell id="_pkrtM7WGQT2VM3EGbci-3" style="edgeStyle=orthogonalEdgeStyle;rounded=0;orthogonalLoop=1;jettySize=auto;html=1;entryX=0.5;entryY=0;entryDx=0;entryDy=0;" parent="1" source="_pkrtM7WGQT2VM3EGbci-1" target="h4dxqBW4cxkd71x_Y7fE-1" edge="1">
          <mxGeometry relative="1" as="geometry">
            <mxPoint x="390" y="160" as="targetPoint" />
          </mxGeometry>
        </mxCell>
        <mxCell id="_pkrtM7WGQT2VM3EGbci-1" value="start" style="ellipse;whiteSpace=wrap;html=1;" parent="1" vertex="1">
          <mxGeometry x="320" y="20" width="120" height="80" as="geometry" />
        </mxCell>
        <mxCell id="_pkrtM7WGQT2VM3EGbci-15" value="end" style="ellipse;whiteSpace=wrap;html=1;" parent="1" vertex="1">
          <mxGeometry x="1100" y="1220" width="120" height="80" as="geometry" />
        </mxCell>
        <mxCell id="h4dxqBW4cxkd71x_Y7fE-2" style="edgeStyle=orthogonalEdgeStyle;rounded=0;orthogonalLoop=1;jettySize=auto;html=1;" edge="1" parent="1" source="h4dxqBW4cxkd71x_Y7fE-1" target="h4dxqBW4cxkd71x_Y7fE-3">
          <mxGeometry relative="1" as="geometry">
            <mxPoint x="370" y="300" as="targetPoint" />
            <Array as="points">
              <mxPoint x="360" y="265" />
              <mxPoint x="371" y="265" />
            </Array>
          </mxGeometry>
        </mxCell>
        <mxCell id="h4dxqBW4cxkd71x_Y7fE-1" value="a,b,choice" style="shape=parallelogram;perimeter=parallelogramPerimeter;whiteSpace=wrap;html=1;fixedSize=1;" vertex="1" parent="1">
          <mxGeometry x="300" y="170" width="120" height="60" as="geometry" />
        </mxCell>
        <mxCell id="h4dxqBW4cxkd71x_Y7fE-33" style="edgeStyle=orthogonalEdgeStyle;rounded=0;orthogonalLoop=1;jettySize=auto;html=1;entryX=0;entryY=0.5;entryDx=0;entryDy=0;" edge="1" parent="1" source="h4dxqBW4cxkd71x_Y7fE-3" target="h4dxqBW4cxkd71x_Y7fE-9">
          <mxGeometry relative="1" as="geometry" />
        </mxCell>
        <mxCell id="h4dxqBW4cxkd71x_Y7fE-34" style="edgeStyle=orthogonalEdgeStyle;rounded=0;orthogonalLoop=1;jettySize=auto;html=1;entryX=0;entryY=0.5;entryDx=0;entryDy=0;" edge="1" parent="1" source="h4dxqBW4cxkd71x_Y7fE-3" target="h4dxqBW4cxkd71x_Y7fE-12">
          <mxGeometry relative="1" as="geometry" />
        </mxCell>
        <mxCell id="h4dxqBW4cxkd71x_Y7fE-35" style="edgeStyle=orthogonalEdgeStyle;rounded=0;orthogonalLoop=1;jettySize=auto;html=1;entryX=0;entryY=0.5;entryDx=0;entryDy=0;" edge="1" parent="1" source="h4dxqBW4cxkd71x_Y7fE-3" target="h4dxqBW4cxkd71x_Y7fE-15">
          <mxGeometry relative="1" as="geometry" />
        </mxCell>
        <mxCell id="h4dxqBW4cxkd71x_Y7fE-36" style="edgeStyle=orthogonalEdgeStyle;rounded=0;orthogonalLoop=1;jettySize=auto;html=1;entryX=0;entryY=0.5;entryDx=0;entryDy=0;" edge="1" parent="1" source="h4dxqBW4cxkd71x_Y7fE-3" target="h4dxqBW4cxkd71x_Y7fE-18">
          <mxGeometry relative="1" as="geometry" />
        </mxCell>
        <mxCell id="h4dxqBW4cxkd71x_Y7fE-39" style="edgeStyle=orthogonalEdgeStyle;rounded=0;orthogonalLoop=1;jettySize=auto;html=1;entryX=0;entryY=0.5;entryDx=0;entryDy=0;" edge="1" parent="1" source="h4dxqBW4cxkd71x_Y7fE-3" target="h4dxqBW4cxkd71x_Y7fE-25">
          <mxGeometry relative="1" as="geometry" />
        </mxCell>
        <mxCell id="h4dxqBW4cxkd71x_Y7fE-41" style="edgeStyle=orthogonalEdgeStyle;rounded=0;orthogonalLoop=1;jettySize=auto;html=1;entryX=0;entryY=0.5;entryDx=0;entryDy=0;" edge="1" parent="1" source="h4dxqBW4cxkd71x_Y7fE-3" target="h4dxqBW4cxkd71x_Y7fE-31">
          <mxGeometry relative="1" as="geometry" />
        </mxCell>
        <mxCell id="h4dxqBW4cxkd71x_Y7fE-3" value="choice=?" style="rhombus;whiteSpace=wrap;html=1;" vertex="1" parent="1">
          <mxGeometry x="310" y="360" width="116" height="100" as="geometry" />
        </mxCell>
        <mxCell id="h4dxqBW4cxkd71x_Y7fE-7" style="edgeStyle=orthogonalEdgeStyle;rounded=0;orthogonalLoop=1;jettySize=auto;html=1;" edge="1" parent="1" source="h4dxqBW4cxkd71x_Y7fE-4" target="h4dxqBW4cxkd71x_Y7fE-6">
          <mxGeometry relative="1" as="geometry" />
        </mxCell>
        <mxCell id="h4dxqBW4cxkd71x_Y7fE-4" value="choice=1" style="rhombus;whiteSpace=wrap;html=1;" vertex="1" parent="1">
          <mxGeometry x="560" y="365" width="80" height="80" as="geometry" />
        </mxCell>
        <mxCell id="h4dxqBW4cxkd71x_Y7fE-5" style="edgeStyle=orthogonalEdgeStyle;rounded=0;orthogonalLoop=1;jettySize=auto;html=1;entryX=0.063;entryY=0.413;entryDx=0;entryDy=0;entryPerimeter=0;" edge="1" parent="1" source="h4dxqBW4cxkd71x_Y7fE-3" target="h4dxqBW4cxkd71x_Y7fE-4">
          <mxGeometry relative="1" as="geometry" />
        </mxCell>
        <mxCell id="h4dxqBW4cxkd71x_Y7fE-6" value="result=a+b" style="shape=parallelogram;perimeter=parallelogramPerimeter;whiteSpace=wrap;html=1;fixedSize=1;" vertex="1" parent="1">
          <mxGeometry x="740" y="375" width="120" height="60" as="geometry" />
        </mxCell>
        <mxCell id="h4dxqBW4cxkd71x_Y7fE-8" style="edgeStyle=orthogonalEdgeStyle;rounded=0;orthogonalLoop=1;jettySize=auto;html=1;" edge="1" parent="1" source="h4dxqBW4cxkd71x_Y7fE-9" target="h4dxqBW4cxkd71x_Y7fE-10">
          <mxGeometry relative="1" as="geometry" />
        </mxCell>
        <mxCell id="h4dxqBW4cxkd71x_Y7fE-9" value="choice=2" style="rhombus;whiteSpace=wrap;html=1;" vertex="1" parent="1">
          <mxGeometry x="560" y="505" width="80" height="80" as="geometry" />
        </mxCell>
        <mxCell id="h4dxqBW4cxkd71x_Y7fE-10" value="result=a-b" style="shape=parallelogram;perimeter=parallelogramPerimeter;whiteSpace=wrap;html=1;fixedSize=1;" vertex="1" parent="1">
          <mxGeometry x="740" y="515" width="120" height="60" as="geometry" />
        </mxCell>
        <mxCell id="h4dxqBW4cxkd71x_Y7fE-11" style="edgeStyle=orthogonalEdgeStyle;rounded=0;orthogonalLoop=1;jettySize=auto;html=1;" edge="1" parent="1" source="h4dxqBW4cxkd71x_Y7fE-12" target="h4dxqBW4cxkd71x_Y7fE-13">
          <mxGeometry relative="1" as="geometry" />
        </mxCell>
        <mxCell id="h4dxqBW4cxkd71x_Y7fE-12" value="choice=3" style="rhombus;whiteSpace=wrap;html=1;" vertex="1" parent="1">
          <mxGeometry x="560" y="630" width="80" height="80" as="geometry" />
        </mxCell>
        <mxCell id="h4dxqBW4cxkd71x_Y7fE-13" value="result=a*b" style="shape=parallelogram;perimeter=parallelogramPerimeter;whiteSpace=wrap;html=1;fixedSize=1;" vertex="1" parent="1">
          <mxGeometry x="740" y="640" width="120" height="60" as="geometry" />
        </mxCell>
        <mxCell id="h4dxqBW4cxkd71x_Y7fE-14" style="edgeStyle=orthogonalEdgeStyle;rounded=0;orthogonalLoop=1;jettySize=auto;html=1;" edge="1" parent="1" source="h4dxqBW4cxkd71x_Y7fE-15" target="h4dxqBW4cxkd71x_Y7fE-16">
          <mxGeometry relative="1" as="geometry" />
        </mxCell>
        <mxCell id="h4dxqBW4cxkd71x_Y7fE-15" value="choice=4" style="rhombus;whiteSpace=wrap;html=1;" vertex="1" parent="1">
          <mxGeometry x="560" y="760" width="80" height="80" as="geometry" />
        </mxCell>
        <mxCell id="h4dxqBW4cxkd71x_Y7fE-16" value="result=a/b" style="shape=parallelogram;perimeter=parallelogramPerimeter;whiteSpace=wrap;html=1;fixedSize=1;" vertex="1" parent="1">
          <mxGeometry x="740" y="770" width="120" height="60" as="geometry" />
        </mxCell>
        <mxCell id="h4dxqBW4cxkd71x_Y7fE-17" style="edgeStyle=orthogonalEdgeStyle;rounded=0;orthogonalLoop=1;jettySize=auto;html=1;" edge="1" parent="1" source="h4dxqBW4cxkd71x_Y7fE-18" target="h4dxqBW4cxkd71x_Y7fE-19">
          <mxGeometry relative="1" as="geometry" />
        </mxCell>
        <mxCell id="h4dxqBW4cxkd71x_Y7fE-18" value="choice=5" style="rhombus;whiteSpace=wrap;html=1;" vertex="1" parent="1">
          <mxGeometry x="560" y="860" width="80" height="80" as="geometry" />
        </mxCell>
        <mxCell id="h4dxqBW4cxkd71x_Y7fE-19" value="result=a%b" style="shape=parallelogram;perimeter=parallelogramPerimeter;whiteSpace=wrap;html=1;fixedSize=1;" vertex="1" parent="1">
          <mxGeometry x="740" y="870" width="120" height="60" as="geometry" />
        </mxCell>
        <mxCell id="h4dxqBW4cxkd71x_Y7fE-21" style="edgeStyle=orthogonalEdgeStyle;rounded=0;orthogonalLoop=1;jettySize=auto;html=1;" edge="1" parent="1" source="h4dxqBW4cxkd71x_Y7fE-22" target="h4dxqBW4cxkd71x_Y7fE-23">
          <mxGeometry relative="1" as="geometry" />
        </mxCell>
        <mxCell id="h4dxqBW4cxkd71x_Y7fE-38" style="edgeStyle=orthogonalEdgeStyle;rounded=0;orthogonalLoop=1;jettySize=auto;html=1;entryX=1;entryY=0.5;entryDx=0;entryDy=0;" edge="1" parent="1" source="h4dxqBW4cxkd71x_Y7fE-22" target="h4dxqBW4cxkd71x_Y7fE-3">
          <mxGeometry relative="1" as="geometry" />
        </mxCell>
        <mxCell id="h4dxqBW4cxkd71x_Y7fE-22" value="choice=6" style="rhombus;whiteSpace=wrap;html=1;" vertex="1" parent="1">
          <mxGeometry x="560" y="990" width="80" height="80" as="geometry" />
        </mxCell>
        <mxCell id="h4dxqBW4cxkd71x_Y7fE-23" value="result=UCLN(a,b)" style="shape=parallelogram;perimeter=parallelogramPerimeter;whiteSpace=wrap;html=1;fixedSize=1;" vertex="1" parent="1">
          <mxGeometry x="740" y="1000" width="120" height="60" as="geometry" />
        </mxCell>
        <mxCell id="h4dxqBW4cxkd71x_Y7fE-24" style="edgeStyle=orthogonalEdgeStyle;rounded=0;orthogonalLoop=1;jettySize=auto;html=1;" edge="1" parent="1" source="h4dxqBW4cxkd71x_Y7fE-25" target="h4dxqBW4cxkd71x_Y7fE-26">
          <mxGeometry relative="1" as="geometry" />
        </mxCell>
        <mxCell id="h4dxqBW4cxkd71x_Y7fE-25" value="choice=7" style="rhombus;whiteSpace=wrap;html=1;" vertex="1" parent="1">
          <mxGeometry x="550" y="1110" width="80" height="80" as="geometry" />
        </mxCell>
        <mxCell id="h4dxqBW4cxkd71x_Y7fE-26" value="result=BCNN(a,b)" style="shape=parallelogram;perimeter=parallelogramPerimeter;whiteSpace=wrap;html=1;fixedSize=1;" vertex="1" parent="1">
          <mxGeometry x="730" y="1120" width="120" height="60" as="geometry" />
        </mxCell>
        <mxCell id="h4dxqBW4cxkd71x_Y7fE-27" style="edgeStyle=orthogonalEdgeStyle;rounded=0;orthogonalLoop=1;jettySize=auto;html=1;entryX=0;entryY=0.5;entryDx=0;entryDy=0;" edge="1" parent="1" source="h4dxqBW4cxkd71x_Y7fE-28" target="_pkrtM7WGQT2VM3EGbci-15">
          <mxGeometry relative="1" as="geometry">
            <mxPoint x="740" y="1250" as="targetPoint" />
          </mxGeometry>
        </mxCell>
        <mxCell id="h4dxqBW4cxkd71x_Y7fE-28" value="choice=8" style="rhombus;whiteSpace=wrap;html=1;" vertex="1" parent="1">
          <mxGeometry x="550" y="1210" width="80" height="80" as="geometry" />
        </mxCell>
        <mxCell id="h4dxqBW4cxkd71x_Y7fE-30" style="edgeStyle=orthogonalEdgeStyle;rounded=0;orthogonalLoop=1;jettySize=auto;html=1;entryX=0;entryY=0.5;entryDx=0;entryDy=0;" edge="1" parent="1" source="h4dxqBW4cxkd71x_Y7fE-31" target="h4dxqBW4cxkd71x_Y7fE-42">
          <mxGeometry relative="1" as="geometry">
            <mxPoint x="740" y="1370" as="targetPoint" />
          </mxGeometry>
        </mxCell>
        <mxCell id="h4dxqBW4cxkd71x_Y7fE-31" value="choice: default" style="rhombus;whiteSpace=wrap;html=1;" vertex="1" parent="1">
          <mxGeometry x="540" y="1330" width="120" height="90" as="geometry" />
        </mxCell>
        <mxCell id="h4dxqBW4cxkd71x_Y7fE-40" style="edgeStyle=orthogonalEdgeStyle;rounded=0;orthogonalLoop=1;jettySize=auto;html=1;entryX=0;entryY=0.5;entryDx=0;entryDy=0;" edge="1" parent="1" source="h4dxqBW4cxkd71x_Y7fE-3" target="h4dxqBW4cxkd71x_Y7fE-28">
          <mxGeometry relative="1" as="geometry">
            <Array as="points">
              <mxPoint x="488" y="410" />
              <mxPoint x="488" y="1250" />
            </Array>
          </mxGeometry>
        </mxCell>
        <mxCell id="h4dxqBW4cxkd71x_Y7fE-53" style="edgeStyle=orthogonalEdgeStyle;rounded=0;orthogonalLoop=1;jettySize=auto;html=1;" edge="1" parent="1" source="h4dxqBW4cxkd71x_Y7fE-42">
          <mxGeometry relative="1" as="geometry">
            <mxPoint x="950" y="256" as="targetPoint" />
          </mxGeometry>
        </mxCell>
        <mxCell id="h4dxqBW4cxkd71x_Y7fE-42" value="&#xa;&lt;div style=&quot;color: rgb(212, 212, 212); background-color: rgb(30, 30, 30); font-family: Consolas, &amp;quot;Courier New&amp;quot;, monospace; font-weight: normal; font-size: 14px; line-height: 19px;&quot;&gt;&lt;div&gt;&lt;span style=&quot;color: #d4d4d4;&quot;&gt;(&lt;/span&gt;&lt;span style=&quot;color: #ce9178;&quot;&gt;&quot;Vui long chon tu 1-8\n&quot;&lt;/span&gt;&lt;span style=&quot;color: #d4d4d4;&quot;&gt;)&lt;/span&gt;&lt;/div&gt;&lt;/div&gt;&#xa;&#xa;" style="ellipse;whiteSpace=wrap;html=1;" vertex="1" parent="1">
          <mxGeometry x="760" y="1350" width="120" height="80" as="geometry" />
        </mxCell>
        <mxCell id="h4dxqBW4cxkd71x_Y7fE-46" value="" style="endArrow=classic;html=1;rounded=0;exitX=1;exitY=0.5;exitDx=0;exitDy=0;" edge="1" parent="1" source="h4dxqBW4cxkd71x_Y7fE-6">
          <mxGeometry width="50" height="50" relative="1" as="geometry">
            <mxPoint x="520" y="390" as="sourcePoint" />
            <mxPoint x="370" y="290" as="targetPoint" />
            <Array as="points">
              <mxPoint x="960" y="250" />
            </Array>
          </mxGeometry>
        </mxCell>
        <mxCell id="h4dxqBW4cxkd71x_Y7fE-47" value="" style="curved=1;endArrow=classic;html=1;rounded=0;exitX=1;exitY=0.5;exitDx=0;exitDy=0;" edge="1" parent="1" source="h4dxqBW4cxkd71x_Y7fE-10">
          <mxGeometry width="50" height="50" relative="1" as="geometry">
            <mxPoint x="860" y="570" as="sourcePoint" />
            <mxPoint x="910" y="320" as="targetPoint" />
            <Array as="points">
              <mxPoint x="910" y="570" />
              <mxPoint x="860" y="520" />
            </Array>
          </mxGeometry>
        </mxCell>
        <mxCell id="h4dxqBW4cxkd71x_Y7fE-48" value="" style="curved=1;endArrow=classic;html=1;rounded=0;exitX=1;exitY=0;exitDx=0;exitDy=0;" edge="1" parent="1" source="h4dxqBW4cxkd71x_Y7fE-13">
          <mxGeometry width="50" height="50" relative="1" as="geometry">
            <mxPoint x="860" y="630" as="sourcePoint" />
            <mxPoint x="920" y="307" as="targetPoint" />
            <Array as="points">
              <mxPoint x="910" y="630" />
              <mxPoint x="860" y="580" />
            </Array>
          </mxGeometry>
        </mxCell>
        <mxCell id="h4dxqBW4cxkd71x_Y7fE-49" value="" style="endArrow=classic;html=1;rounded=0;exitX=1;exitY=0.5;exitDx=0;exitDy=0;" edge="1" parent="1" source="h4dxqBW4cxkd71x_Y7fE-16">
          <mxGeometry width="50" height="50" relative="1" as="geometry">
            <mxPoint x="860" y="820" as="sourcePoint" />
            <mxPoint x="890" y="339" as="targetPoint" />
          </mxGeometry>
        </mxCell>
        <mxCell id="h4dxqBW4cxkd71x_Y7fE-50" value="" style="endArrow=classic;html=1;rounded=0;exitX=1;exitY=0.75;exitDx=0;exitDy=0;" edge="1" parent="1" source="h4dxqBW4cxkd71x_Y7fE-19">
          <mxGeometry width="50" height="50" relative="1" as="geometry">
            <mxPoint x="860" y="970" as="sourcePoint" />
            <mxPoint x="920" y="310" as="targetPoint" />
          </mxGeometry>
        </mxCell>
        <mxCell id="h4dxqBW4cxkd71x_Y7fE-51" value="" style="endArrow=classic;html=1;rounded=0;exitX=1;exitY=0.5;exitDx=0;exitDy=0;" edge="1" parent="1" source="h4dxqBW4cxkd71x_Y7fE-26">
          <mxGeometry width="50" height="50" relative="1" as="geometry">
            <mxPoint x="900" y="1090" as="sourcePoint" />
            <mxPoint x="940" y="280" as="targetPoint" />
            <Array as="points">
              <mxPoint x="990" y="1030" />
            </Array>
          </mxGeometry>
        </mxCell>
        <mxCell id="h4dxqBW4cxkd71x_Y7fE-52" value="" style="endArrow=classic;html=1;rounded=0;exitX=1;exitY=0.75;exitDx=0;exitDy=0;" edge="1" parent="1" source="h4dxqBW4cxkd71x_Y7fE-23">
          <mxGeometry width="50" height="50" relative="1" as="geometry">
            <mxPoint x="860" y="1130" as="sourcePoint" />
            <mxPoint x="930" y="285" as="targetPoint" />
            <Array as="points">
              <mxPoint x="910" y="970" />
            </Array>
          </mxGeometry>
        </mxCell>
      </root>
    </mxGraphModel>
  </diagram>
</mxfile>
